<svg width="1366" height="1368" viewBox="0 0 1366 1368" fill="none" xmlns="http://www.w3.org/2000/svg">
<g clip-path="url(#clip0_1377_38)">
<path d="M618.469 611.35C504.919 602 441.909 531.17 260.539 645.63C282.486 653.554 303.716 663.336 323.999 674.87C465.639 723.28 556.439 669.92 618.469 611.35Z" fill="#EEEDF5"/>
<path d="M1112.62 442.75C1054.02 431.47 991.749 424.94 928.289 463.75C913.129 473.38 898.89 484.61 885.02 496.42C894.7 498.29 904.449 500.3 914.409 502.28C1044.08 535 1060.88 487.84 1112.62 442.75Z" fill="#EEEDF5"/>
<path d="M1367.78 858.29C1367.78 702.93 1367.91 586.73 1367.95 430.87C1367.2 414.3 1306.95 377.87 1242.78 385.87C1177.26 396.79 1141.29 419.5 1114.62 442.75C1062.88 487.84 1046.08 535 916.41 502.28C906.41 500.28 896.7 498.28 887.02 496.42C867.48 492.66 848.21 489.52 828.02 488.5C787.73 485.21 747.96 488.87 715.44 514.2C692.72 527.58 663.52 570.72 620.44 611.35C558.44 669.92 467.61 723.28 325.92 674.87C305.653 663.339 284.439 653.557 262.51 645.63C242.614 638.458 222.072 633.224 201.17 630C77.82 611.28 2 678.32 2 684.33C2.12 929.963 2.12 1175.59 2 1421.22C416.15 1428.59 837 1421.1 1255.36 1423.72C1291.28 1421.87 1335.36 1427.45 1367.73 1421.97C1368.18 1233 1367.57 1046.64 1367.78 858.29Z" fill="#FAFAFA"/>
</g>
<defs>
<clipPath id="clip0_1377_38">
<rect width="1366" height="1368" fill="white"/>
</clipPath>
</defs>
</svg>
